<svg width="60.000000" height="60.000000" viewBox="0 0 60 60" fill="none" xmlns="http://www.w3.org/2000/svg" xmlns:xlink="http://www.w3.org/1999/xlink">
	<desc>
			Created with Pixso.
	</desc>
	<defs/>
	<path id="Vector" d="M41.13 27.86C41.4 28.15 41.61 28.49 41.76 28.86C42.06 29.59 42.06 30.4 41.76 31.13C41.61 31.5 41.4 31.84 41.13 32.12L32.13 41.12C31.56 41.69 30.79 42.01 30 42.01C29.2 42.01 28.43 41.69 27.87 41.12C27.3 40.56 26.98 39.79 26.98 39C26.98 38.2 27.3 37.43 27.87 36.86L31.77 33L21 33C20.2 33 19.44 32.68 18.87 32.12C18.31 31.55 18 30.79 18 30C18 29.2 18.31 28.44 18.87 27.87C19.44 27.31 20.2 27 21 27L31.77 27L27.87 23.12C27.58 22.85 27.36 22.51 27.21 22.15C27.06 21.78 26.98 21.39 26.98 21C26.98 20.6 27.06 20.21 27.21 19.84C27.36 19.48 27.58 19.14 27.87 18.87C28.14 18.58 28.48 18.36 28.84 18.21C29.21 18.06 29.6 17.98 30 17.98C30.39 17.98 30.78 18.06 31.15 18.21C31.51 18.36 31.85 18.58 32.13 18.87L41.13 27.86ZM60 30C60 35.93 58.24 41.73 54.94 46.66C51.64 51.6 46.96 55.44 41.48 57.71C35.99 59.98 29.96 60.58 24.14 59.42C18.32 58.26 12.98 55.4 8.78 51.21C4.59 47.01 1.73 41.67 0.57 35.85C-0.59 30.03 0.01 24 2.28 18.51C4.55 13.03 8.39 8.35 13.33 5.05C18.26 1.75 24.06 0 30 0C33.93 0 37.84 0.77 41.48 2.28C45.12 3.79 48.42 6 51.21 8.78C56.83 14.41 60 22.04 60 30ZM6 30C6 34.74 7.4 39.38 10.04 43.33C12.68 47.28 16.43 50.35 20.81 52.17C25.2 53.98 30.02 54.46 34.68 53.53C39.33 52.61 43.61 50.32 46.97 46.97C50.32 43.61 52.61 39.33 53.53 34.68C54.46 30.02 53.98 25.2 52.17 20.81C50.35 16.43 47.28 12.68 43.33 10.04C39.38 7.4 34.74 6 30 6C23.63 6 17.53 8.52 13.02 13.02C8.52 17.53 6 23.63 6 30Z" fill="#8B5CF6" fill-opacity="1.000000" fill-rule="nonzero"/>
</svg>
