<svg width="60.000000" height="60.000000" viewBox="0 0 60 60" fill="none" xmlns="http://www.w3.org/2000/svg" xmlns:xlink="http://www.w3.org/1999/xlink">
	<desc>
			Created with Pixso.
	</desc>
	<defs/>
	<path id="Vector" d="M18.87 27.86C18.59 28.15 18.38 28.49 18.24 28.86C17.93 29.59 17.93 30.4 18.24 31.13C18.38 31.5 18.59 31.84 18.87 32.12L27.87 41.12C28.43 41.69 29.2 42.01 30 42.01C30.79 42.01 31.56 41.69 32.13 41.12C32.69 40.56 33.01 39.79 33.01 39C33.01 38.2 32.69 37.43 32.13 36.86L28.23 33L39 33C39.79 33 40.55 32.68 41.12 32.12C41.68 31.55 42 30.79 42 30C42 29.2 41.68 28.44 41.12 27.87C40.55 27.31 39.79 27 39 27L28.23 27L32.13 23.12C32.41 22.85 32.63 22.51 32.78 22.15C32.93 21.78 33.01 21.39 33.01 21C33.01 20.6 32.93 20.21 32.78 19.84C32.63 19.48 32.41 19.14 32.13 18.87C31.85 18.58 31.51 18.36 31.15 18.21C30.78 18.06 30.39 17.98 30 17.98C29.6 17.98 29.21 18.06 28.84 18.21C28.48 18.36 28.14 18.58 27.87 18.87L18.87 27.86ZM0 30C0 35.93 1.75 41.73 5.05 46.66C8.35 51.6 13.03 55.44 18.51 57.71C24 59.98 30.03 60.58 35.85 59.42C41.67 58.26 47.01 55.4 51.21 51.21C55.4 47.01 58.26 41.67 59.42 35.85C60.58 30.03 59.98 24 57.71 18.51C55.44 13.03 51.6 8.35 46.66 5.05C41.73 1.75 35.93 0 30 0C26.06 0 22.15 0.77 18.51 2.28C14.87 3.79 11.57 6 8.78 8.78C3.16 14.41 0 22.04 0 30ZM54 30C54 34.74 52.59 39.38 49.95 43.33C47.31 47.28 43.56 50.35 39.18 52.17C34.79 53.98 29.97 54.46 25.31 53.53C20.66 52.61 16.38 50.32 13.02 46.97C9.67 43.61 7.38 39.33 6.46 34.68C5.53 30.02 6.01 25.2 7.82 20.81C9.64 16.43 12.71 12.68 16.66 10.04C20.61 7.4 25.25 6 30 6C36.36 6 42.46 8.52 46.97 13.02C51.47 17.53 54 23.63 54 30Z" fill="#8B5CF6" fill-opacity="1.000000" fill-rule="nonzero"/>
</svg>
