<svg xmlns="http://www.w3.org/2000/svg">

    <symbol id="arrow" viewBox="0 0 24 24">
        <path d="M8.29 11.29C8.19896 11.3851 8.12759 11.4972 8.08 11.62C7.97998 11.8635 7.97998 12.1365 8.08 12.38C8.12759 12.5028 8.19896 12.6149 8.29 12.71L11.29 15.71C11.4783 15.8983 11.7337 16.0041 12 16.0041C12.2663 16.0041 12.5217 15.8983 12.71 15.71C12.8983 15.5217 13.0041 15.2663 13.0041 15C13.0041 14.7337 12.8983 14.4783 12.71 14.29L11.41 13H15C15.2652 13 15.5196 12.8946 15.7071 12.7071C15.8946 12.5196 16 12.2652 16 12C16 11.7348 15.8946 11.4804 15.7071 11.2929C15.5196 11.1054 15.2652 11 15 11H11.41L12.71 9.71C12.8037 9.61704 12.8781 9.50644 12.9289 9.38458C12.9797 9.26272 13.0058 9.13201 13.0058 9C13.0058 8.86799 12.9797 8.73728 12.9289 8.61542C12.8781 8.49356 12.8037 8.38296 12.71 8.29C12.617 8.19627 12.5064 8.12188 12.3846 8.07111C12.2627 8.02034 12.132 7.9942 12 7.9942C11.868 7.9942 11.7373 8.02034 11.6154 8.07111C11.4936 8.12188 11.383 8.19627 11.29 8.29L8.29 11.29ZM2 12C2 13.9778 2.58649 15.9112 3.6853 17.5557C4.78412 19.2002 6.3459 20.4819 8.17317 21.2388C10.0004 21.9957 12.0111 22.1937 13.9509 21.8079C15.8907 21.422 17.6725 20.4696 19.0711 19.0711C20.4696 17.6725 21.422 15.8907 21.8079 13.9509C22.1937 12.0111 21.9957 10.0004 21.2388 8.17317C20.4819 6.3459 19.2002 4.78412 17.5557 3.6853C15.9112 2.58649 13.9778 2 12 2C10.6868 2 9.38642 2.25866 8.17317 2.7612C6.95991 3.26375 5.85752 4.00035 4.92893 4.92893C3.05357 6.8043 2 9.34784 2 12ZM20 12C20 13.5823 19.5308 15.129 18.6518 16.4446C17.7727 17.7602 16.5233 18.7855 15.0615 19.391C13.5997 19.9965 11.9911 20.155 10.4393 19.8463C8.88743 19.5376 7.46197 18.7757 6.34315 17.6569C5.22433 16.538 4.4624 15.1126 4.15372 13.5607C3.84504 12.0089 4.00346 10.4003 4.60896 8.93853C5.21447 7.47672 6.23984 6.22729 7.55544 5.34824C8.87103 4.46919 10.4177 4 12 4C14.1217 4 16.1566 4.84285 17.6569 6.34315C19.1571 7.84344 20 9.87827 20 12Z" fill="black"/>
    </symbol>

    <symbol id="quotes" viewBox="0 0 24 24">
        <path d="M10.7324 10.4286C10.7324 11.9143 10.507 13.1905 10.0563 14.2571C9.60563 15.3619 9.02347 16.2571 8.30986 16.9429C7.59624 17.6667 6.78873 18.181 5.88732 18.4857C4.94835 18.8286 4.02817 19 3.12676 19L3.12676 17C4.10328 17 5.02347 16.6571 5.88732 15.9714C6.71361 15.3238 7.20188 14.4286 7.35211 13.2857C7.23943 13.3238 7.10798 13.3619 6.95775 13.4C6.84507 13.4381 6.71361 13.4762 6.56338 13.5143C6.37559 13.5524 6.16901 13.5714 5.94366 13.5714C4.8169 13.5714 3.87793 13.1333 3.12676 12.2571C2.37558 11.419 2 10.4286 2 9.28571C2 8.14286 2.39436 7.13334 3.1831 6.25714C3.93427 5.41905 4.94836 5 6.22535 5C7.65258 5 8.76056 5.53333 9.54929 6.6C10.338 7.70476 10.7324 8.98095 10.7324 10.4286ZM22 10.4286C22 11.9143 21.7746 13.1905 21.3239 14.2571C20.8732 15.3619 20.2911 16.2571 19.5775 16.9429C18.8638 17.6667 18.0563 18.181 17.1549 18.4857C16.216 18.8286 15.2958 19 14.3944 19L14.3944 17C15.3709 17 16.2911 16.6571 17.1549 15.9714C17.9812 15.3238 18.4695 14.4286 18.6197 13.2857C18.507 13.3238 18.3756 13.3619 18.2254 13.4C18.1127 13.4381 17.9812 13.4762 17.831 13.5143C17.6432 13.5524 17.4366 13.5714 17.2113 13.5714C16.0845 13.5714 15.1455 13.1333 14.3944 12.2571C13.6432 11.419 13.2676 10.4286 13.2676 9.28571C13.2676 8.14286 13.662 7.13333 14.4507 6.25714C15.2019 5.41905 16.216 5 17.493 5C18.9202 5 20.0282 5.53333 20.8169 6.6C21.6056 7.70476 22 8.98095 22 10.4286Z" fill="#111827"/>
    </symbol>

    <symbol id="smile" viewBox="0 0 24 24">
        <path d="M14.36 14.23C13.6915 14.769 12.8587 15.0629 12 15.0629C11.1413 15.0629 10.3085 14.769 9.64 14.23C9.43579 14.0603 9.17251 13.9786 8.90808 14.003C8.64365 14.0274 8.39974 14.1558 8.23 14.36C8.06027 14.5642 7.9786 14.8275 8.00298 15.0919C8.02736 15.3563 8.15579 15.6003 8.36 15.77C9.38134 16.6226 10.6696 17.0896 12 17.0896C13.3304 17.0896 14.6187 16.6226 15.64 15.77C15.8442 15.6003 15.9726 15.3563 15.997 15.0919C16.0214 14.8275 15.9397 14.5642 15.77 14.36C15.686 14.2589 15.5828 14.1753 15.4665 14.1141C15.3501 14.0528 15.2229 14.0151 15.0919 14.003C14.8275 13.9786 14.5642 14.0603 14.36 14.23ZM9.21 10.54C9.39737 10.7263 9.65082 10.8308 9.915 10.8308C10.1792 10.8308 10.4326 10.7263 10.62 10.54C10.8063 10.3526 10.9108 10.0992 10.9108 9.835C10.9108 9.57081 10.8063 9.31736 10.62 9.13C10.0477 8.58699 9.2889 8.28428 8.5 8.28428C7.71111 8.28428 6.95228 8.58699 6.38 9.13C6.27532 9.21965 6.1903 9.32997 6.13028 9.45403C6.07026 9.57809 6.03653 9.71323 6.03121 9.85095C6.02589 9.98867 6.04909 10.126 6.09937 10.2543C6.14964 10.3826 6.2259 10.4992 6.32335 10.5967C6.42081 10.6941 6.53736 10.7704 6.66568 10.8206C6.79401 10.8709 6.93134 10.8941 7.06906 10.8888C7.20678 10.8835 7.34191 10.8497 7.46597 10.7897C7.59004 10.7297 7.70036 10.6447 7.79 10.54C7.88297 10.4463 7.99357 10.3719 8.11543 10.3211C8.23729 10.2703 8.36799 10.2442 8.5 10.2442C8.63202 10.2442 8.76272 10.2703 8.88458 10.3211C9.00644 10.3719 9.11704 10.4463 9.21 10.54ZM17.62 9.13C17.0477 8.58699 16.2889 8.28428 15.5 8.28428C14.7111 8.28428 13.9523 8.58699 13.38 9.13C13.2162 9.3213 13.1306 9.56738 13.1403 9.81905C13.15 10.0707 13.2543 10.3095 13.4324 10.4876C13.6105 10.6657 13.8493 10.77 14.101 10.7797C14.3526 10.7894 14.5987 10.7038 14.79 10.54C14.883 10.4463 14.9936 10.3719 15.1154 10.3211C15.2373 10.2703 15.368 10.2442 15.5 10.2442C15.632 10.2442 15.7627 10.2703 15.8846 10.3211C16.0064 10.3719 16.117 10.4463 16.21 10.54C16.3974 10.7263 16.6508 10.8308 16.915 10.8308C17.1792 10.8308 17.4326 10.7263 17.62 10.54C17.8063 10.3526 17.9108 10.0992 17.9108 9.835C17.9108 9.57081 17.8063 9.31736 17.62 9.13ZM12 2C10.0222 2 8.08879 2.58649 6.4443 3.6853C4.79981 4.78412 3.51809 6.3459 2.76121 8.17317C2.00433 10.0004 1.8063 12.0111 2.19215 13.9509C2.578 15.8907 3.53041 17.6725 4.92894 19.0711C6.32746 20.4696 8.10929 21.422 10.0491 21.8079C11.9889 22.1937 13.9996 21.9957 15.8268 21.2388C17.6541 20.4819 19.2159 19.2002 20.3147 17.5557C21.4135 15.9112 22 13.9778 22 12C22 10.6868 21.7413 9.38642 21.2388 8.17317C20.7363 6.95991 19.9997 5.85752 19.0711 4.92893C18.1425 4.00035 17.0401 3.26375 15.8268 2.7612C14.6136 2.25866 13.3132 2 12 2ZM12 20C10.4178 20 8.87104 19.5308 7.55544 18.6518C6.23985 17.7727 5.21447 16.5233 4.60897 15.0615C4.00347 13.5997 3.84504 11.9911 4.15372 10.4393C4.4624 8.88743 5.22433 7.46197 6.34315 6.34315C7.46197 5.22433 8.88743 4.4624 10.4393 4.15372C11.9911 3.84504 13.5997 4.00346 15.0615 4.60896C16.5233 5.21447 17.7727 6.23984 18.6518 7.55544C19.5308 8.87103 20 10.4177 20 12C20 14.1217 19.1572 16.1566 17.6569 17.6569C16.1566 19.1571 14.1217 20 12 20Z" fill="black"/>
    </symbol>

    <symbol id="best" viewBox="0 0 24 24">
        <path d="M10.694 15.2066C10.5961 15.0957 10.4694 15.016 10.3289 14.9772C10.1885 14.9384 10.0401 14.9421 9.90159 14.9877L8.54503 15.4332C8.47082 15.4577 8.39247 15.4659 8.315 15.4573C8.23753 15.4487 8.16266 15.4235 8.0952 15.3833C8.02774 15.3431 7.96918 15.2888 7.92328 15.2239C7.87739 15.159 7.84517 15.0848 7.8287 15.0063L7.52435 13.5724C7.49304 13.4259 7.42173 13.2918 7.31883 13.1858C7.21593 13.0797 7.08576 13.0063 6.94369 12.9742L6.87961 12.9597L2 20.3301L5.97457 20.0565L7.08084 24L12.0661 16.48C11.9882 16.4805 11.9112 16.4639 11.84 16.4314C11.7688 16.399 11.7051 16.3513 11.6531 16.2916L10.694 15.2066Z" fill="#A78BFA"/>
        <path d="M10.694 15.2066C10.6228 15.1256 10.5361 15.0608 10.4393 15.0164C10.3425 14.972 10.2378 14.9488 10.1318 14.9485C10.0536 14.9484 9.97595 14.961 9.90154 14.9856L8.54498 15.4311C8.47074 15.4556 8.39236 15.4638 8.31486 15.4552C8.23736 15.4466 8.16245 15.4214 8.09495 15.3812C8.02745 15.341 7.96885 15.2867 7.9229 15.2218C7.87696 15.1569 7.84469 15.0828 7.82816 15.0042L7.67798 14.2929L3.65686 20.216L5.97403 20.0565L6.61927 22.3555L11.135 15.7057L10.694 15.2066ZM13.305 15.2066C13.4028 15.0956 13.5295 15.016 13.67 14.9772C13.8105 14.9384 13.9588 14.9421 14.0974 14.9877L15.4539 15.4332C15.5281 15.4577 15.6065 15.4659 15.684 15.4573C15.7614 15.4487 15.8363 15.4235 15.9038 15.3833C15.9712 15.3431 16.0298 15.2888 16.0757 15.2239C16.1216 15.1589 16.1538 15.0848 16.1702 15.0063L16.4746 13.5724C16.5059 13.426 16.5773 13.2919 16.6802 13.186C16.7831 13.08 16.9132 13.0067 17.0553 12.9747L17.1193 12.9602L22 20.33L18.0254 20.0565L16.9191 24L11.9329 16.4799C12.0107 16.4804 12.0878 16.4639 12.159 16.4314C12.2301 16.3989 12.2938 16.3513 12.3459 16.2915L13.305 15.2066Z" fill="#A78BFA"/>
        <path d="M13.305 15.2066C13.4029 15.0957 13.5296 15.016 13.6701 14.9772C13.8106 14.9384 13.9589 14.9421 14.0974 14.9877L15.454 15.4332C15.5282 15.4577 15.6066 15.4659 15.684 15.4573C15.7615 15.4487 15.8364 15.4235 15.9038 15.3833C15.9713 15.3431 16.0298 15.2888 16.0757 15.2239C16.1216 15.159 16.1538 15.0848 16.1703 15.0063L16.3205 14.295L20.3411 20.216L18.0234 20.0565L17.3787 22.3555L12.864 15.7057L13.305 15.2066Z" fill="#A78BFA"/>
        <path d="M13.9707 15.842L15.2722 16.2694C15.4593 16.3308 15.6567 16.3514 15.8519 16.3296C16.0472 16.3079 16.2358 16.2444 16.4058 16.1431C16.5758 16.0418 16.7235 15.9051 16.8393 15.7416C16.9551 15.5781 17.0365 15.3915 17.0783 15.1937L17.3696 13.8186L17.646 13.7567L17.1188 12.9602L17.0548 12.9747C16.9129 13.0069 16.783 13.0803 16.6803 13.1862C16.5776 13.2921 16.5064 13.4261 16.4751 13.5724L16.1708 15.0063C16.1543 15.0848 16.1221 15.1589 16.0762 15.2239C16.0303 15.2888 15.9717 15.3431 15.9043 15.3833C15.8368 15.4235 15.7619 15.4487 15.6845 15.4573C15.607 15.4659 15.5286 15.4577 15.4544 15.4332L14.0979 14.9877C13.9593 14.9421 13.811 14.9384 13.6705 14.9772C13.53 15.016 13.4033 15.0956 13.3055 15.2066L12.3464 16.2905C12.3053 16.3449 12.2527 16.3889 12.1926 16.4191C12.1325 16.4494 12.0666 16.4651 11.9997 16.4651C11.9329 16.4651 11.8669 16.4494 11.8068 16.4191C11.7467 16.3889 11.6942 16.3449 11.6531 16.2905L10.6945 15.2066C10.6233 15.1256 10.5366 15.0608 10.4398 15.0164C10.343 14.972 10.2383 14.9488 10.1323 14.9485C10.0541 14.9484 9.97646 14.961 9.90205 14.9856L8.54549 15.4311C8.47125 15.4556 8.39286 15.4638 8.31536 15.4552C8.23786 15.4466 8.16296 15.4214 8.09546 15.3812C8.02796 15.341 7.96936 15.2867 7.92341 15.2218C7.87747 15.1569 7.84519 15.0828 7.82866 15.0042L7.52481 13.5703C7.49304 13.4243 7.42146 13.2906 7.3185 13.1851C7.21554 13.0795 7.08549 13.0065 6.94364 12.9747L6.88007 12.9602L6.35547 13.7541L6.6478 13.8196L6.93914 15.1947C6.98106 15.3925 7.06257 15.579 7.17846 15.7425C7.29434 15.9059 7.44204 16.0425 7.6121 16.1437C7.78216 16.2449 7.97084 16.3083 8.16605 16.3299C8.36125 16.3516 8.55869 16.3309 8.74572 16.2694L10.0437 15.8384L10.9663 16.8826C11.1248 17.0587 11.3233 17.1913 11.5439 17.2687L11.9995 16.5806L12.459 17.2733C12.6853 17.1969 12.8891 17.0625 13.0512 16.8826L13.9707 15.842Z" fill="#7C3AED"/>
        <path d="M10.6941 15.2066C10.6229 15.1256 10.5362 15.0609 10.4394 15.0164C10.3426 14.972 10.2379 14.9488 10.1319 14.9485C10.0538 14.9485 9.97608 14.961 9.90166 14.9857L8.5451 15.4311C8.47087 15.4556 8.39248 15.4638 8.31498 15.4552C8.23748 15.4467 8.16257 15.4215 8.09508 15.3813C8.02758 15.3411 7.96897 15.2868 7.92303 15.2218C7.87708 15.1569 7.84481 15.0828 7.82828 15.0042L7.67811 14.293L3.65698 20.216L5.97415 20.0565L6.61939 22.3555L11.1351 15.7057L10.6941 15.2066ZM16.3215 14.295L16.1714 15.0063C16.1549 15.0848 16.1227 15.1589 16.0768 15.2239C16.0309 15.2888 15.9723 15.3431 15.9049 15.3833C15.8374 15.4235 15.7625 15.4487 15.6851 15.4573C15.6076 15.4659 15.5293 15.4577 15.4551 15.4332L14.0985 14.9877C13.96 14.9421 13.8116 14.9384 13.6711 14.9772C13.5306 15.016 13.4039 15.0956 13.3061 15.2066L12.8651 15.7057L17.3808 22.3555L18.0255 20.0565L20.3432 20.216L16.3215 14.295Z" fill="#8B5CF6"/>
        <path d="M11.1351 15.7057L10.6941 15.2066C10.6229 15.1256 10.5362 15.0609 10.4394 15.0164C10.3426 14.972 10.2379 14.9488 10.1319 14.9485C10.0538 14.9485 9.97607 14.961 9.90166 14.9857L8.5451 15.4311C8.47086 15.4556 8.39247 15.4638 8.31497 15.4552C8.23747 15.4467 8.16257 15.4215 8.09507 15.3813C8.02757 15.3411 7.96897 15.2868 7.92302 15.2218C7.87708 15.1569 7.8448 15.0828 7.82827 15.0042L7.6781 14.293L6.97729 15.3253C7.09074 15.6921 7.34066 15.9975 7.67222 16.1745C8.00378 16.3515 8.38989 16.3856 8.74583 16.2694L10.0438 15.8384L10.61 16.4795L11.1356 15.7052L11.1351 15.7057ZM15.2718 16.2694C15.6244 16.3852 16.007 16.3534 16.3372 16.181C16.6673 16.0085 16.9184 15.7092 17.0364 15.3475L16.3215 14.295L16.1714 15.0063C16.1549 15.0848 16.1227 15.1589 16.0768 15.2239C16.0309 15.2888 15.9723 15.3431 15.9049 15.3833C15.8374 15.4235 15.7625 15.4487 15.6851 15.4573C15.6076 15.4659 15.5293 15.4577 15.455 15.4332L14.0985 14.9877C13.9599 14.9421 13.8116 14.9384 13.6711 14.9772C13.5306 15.016 13.4039 15.0956 13.3061 15.2066L12.8651 15.7057L13.3972 16.4898L13.9708 15.841L15.2718 16.2694Z" fill="#A78BFA"/>
        <path d="M17.1519 3.50662L18.543 3.81993C18.6326 3.84024 18.7172 3.87961 18.7913 3.93551C18.8654 3.99142 18.9273 4.06265 18.9732 4.14464C19.0191 4.22663 19.0479 4.31759 19.0578 4.4117C19.0676 4.50581 19.0584 4.60101 19.0305 4.69122L18.5985 6.09003C18.5602 6.21403 18.5572 6.34676 18.5899 6.47247C18.6225 6.59817 18.6895 6.71158 18.7827 6.79925L19.834 7.78771C19.9019 7.85146 19.9561 7.92914 19.9932 8.01575C20.0303 8.10237 20.0495 8.19602 20.0495 8.29071C20.0495 8.38541 20.0303 8.47906 19.9932 8.56567C19.9561 8.65229 19.9019 8.72996 19.834 8.79372L18.7827 9.78269C18.6894 9.87032 18.6225 9.98373 18.5898 10.1095C18.5571 10.2352 18.5602 10.3679 18.5985 10.4919L19.0305 11.8907C19.0583 11.9809 19.0676 12.0761 19.0577 12.1701C19.0479 12.2642 19.0191 12.3551 18.9732 12.4371C18.9273 12.519 18.8653 12.5902 18.7913 12.6461C18.7172 12.7019 18.6326 12.7412 18.543 12.7615L17.1519 13.0753C17.0286 13.1031 16.9156 13.1668 16.8263 13.2589C16.737 13.3509 16.6753 13.4674 16.6483 13.5946L16.3439 15.0285C16.3244 15.121 16.2864 15.2083 16.2323 15.2848C16.1781 15.3613 16.1091 15.4253 16.0296 15.4727C15.9501 15.52 15.8619 15.5498 15.7706 15.5599C15.6793 15.5701 15.587 15.5605 15.4995 15.5318L14.1429 15.0863C14.0227 15.0466 13.8939 15.0434 13.772 15.0771C13.65 15.1108 13.54 15.1799 13.4551 15.2763L12.496 16.3602C12.4342 16.4302 12.3589 16.4861 12.275 16.5244C12.191 16.5627 12.1003 16.5824 12.0085 16.5824C11.9167 16.5824 11.8259 16.5627 11.7419 16.5244C11.658 16.4861 11.5827 16.4302 11.5209 16.3602L10.5618 15.2763C10.4769 15.1799 10.3669 15.1108 10.245 15.0771C10.123 15.0434 9.99424 15.0466 9.874 15.0863L8.51744 15.5318C8.42996 15.5605 8.33761 15.5701 8.24632 15.5599C8.15502 15.5498 8.0668 15.52 7.9873 15.4727C7.90779 15.4253 7.83877 15.3613 7.78464 15.2848C7.73051 15.2083 7.69248 15.121 7.67297 15.0285L7.36862 13.5946C7.34165 13.4674 7.27987 13.3509 7.19061 13.2589C7.10135 13.1668 6.98836 13.1031 6.86504 13.0753L5.47394 12.7615C5.3843 12.7412 5.29973 12.7019 5.22566 12.6461C5.15158 12.5902 5.08962 12.519 5.04373 12.4371C4.99785 12.3551 4.96905 12.2642 4.95917 12.1701C4.9493 12.0761 4.95856 11.9809 4.98638 11.8907L5.41838 10.4919C5.45673 10.3679 5.45977 10.2352 5.42711 10.1095C5.39446 9.98373 5.32749 9.87032 5.23417 9.78269L4.18296 8.79372C4.11506 8.72996 4.06081 8.65229 4.0237 8.56567C3.98658 8.47906 3.96741 8.38541 3.96741 8.29071C3.96741 8.19602 3.98658 8.10237 4.0237 8.01575C4.06081 7.92914 4.11506 7.85146 4.18296 7.78771L5.23417 6.79925C5.32744 6.71158 5.39437 6.59817 5.42702 6.47247C5.45967 6.34676 5.45667 6.21403 5.41838 6.09003L4.98638 4.69122C4.95856 4.60101 4.94929 4.50581 4.95916 4.4117C4.96903 4.31759 4.99783 4.22663 5.04371 4.14464C5.08959 4.06265 5.15155 3.99142 5.22563 3.93551C5.29971 3.87961 5.38428 3.84024 5.47394 3.81993L6.86504 3.50662C6.98836 3.47881 7.10135 3.41511 7.19061 3.32307C7.27987 3.23103 7.34165 3.11451 7.36862 2.98735L7.67297 1.55293C7.69253 1.46045 7.73061 1.3732 7.78477 1.29678C7.83892 1.22035 7.90795 1.15643 7.98745 1.1091C8.06694 1.06177 8.15515 1.03209 8.24641 1.02194C8.33768 1.01179 8.42999 1.02141 8.51744 1.05018L9.874 1.49563C9.99426 1.53505 10.123 1.53811 10.2449 1.50445C10.3668 1.47079 10.4767 1.40181 10.5618 1.30568L11.5209 0.22173C11.5828 0.151869 11.6581 0.0960709 11.742 0.0578941C11.826 0.0197172 11.9167 0 12.0085 0C12.1002 0 12.1909 0.0197172 12.2749 0.0578941C12.3588 0.0960709 12.4341 0.151869 12.496 0.22173L13.4551 1.30568C13.5402 1.40181 13.6502 1.47079 13.7721 1.50445C13.894 1.53811 14.0226 1.53505 14.1429 1.49563L15.4995 1.05018C15.5869 1.02141 15.6792 1.01179 15.7705 1.02194C15.8618 1.03209 15.95 1.06177 16.0295 1.1091C16.109 1.15643 16.178 1.22035 16.2321 1.29678C16.2863 1.3732 16.3244 1.46045 16.3439 1.55293L16.6483 2.98735C16.6753 3.11451 16.737 3.23103 16.8263 3.32307C16.9156 3.41511 17.0286 3.47881 17.1519 3.50662Z" fill="#6D28D9"/>
        <path d="M17.2196 8.29303C17.2185 9.28871 16.9492 10.2645 16.4416 11.1115C15.934 11.9585 15.2082 12.6435 14.3451 13.0899C13.482 13.5364 12.5155 13.7267 11.5536 13.6398C10.5917 13.5529 9.67212 13.192 8.89749 12.5976C8.12286 12.0031 7.52365 11.1984 7.16671 10.2733C6.80977 9.34812 6.70914 8.33889 6.87605 7.3582C7.04296 6.37751 7.47085 5.46392 8.11197 4.71938C8.75309 3.97484 9.58223 3.42862 10.5069 3.14168C10.9938 2.98978 11.4999 2.91324 12.0086 2.91457C12.6933 2.91464 13.3713 3.05384 14.0038 3.32422C14.6364 3.5946 15.211 3.99086 15.695 4.49035C16.1789 4.98984 16.5626 5.58277 16.8242 6.23525C17.0858 6.88774 17.2202 7.58698 17.2196 8.29303Z" fill="#A78BFA"/>
        <path d="M17.2195 8.29303C17.22 9.20318 16.996 10.0985 16.5687 10.8949C16.1414 11.6913 15.5247 12.3625 14.7767 12.8456C14.2898 12.9975 13.7837 13.0741 13.2749 13.0727C12.1431 13.0734 11.0418 12.6942 10.1375 11.9924C9.23315 11.2906 8.57493 10.3043 8.26227 9.18263C7.94962 8.06095 7.99952 6.86482 8.40445 5.77498C8.80937 4.68513 9.54732 3.76081 10.5068 3.14168C10.9937 2.98978 11.4998 2.91324 12.0085 2.91457C12.6932 2.91464 13.3712 3.05384 14.0037 3.32422C14.6363 3.5946 15.2109 3.99086 15.6948 4.49035C16.1788 4.98984 16.5625 5.58277 16.8241 6.23525C17.0857 6.88774 17.2201 7.58698 17.2195 8.29303Z" fill="#8B5CF6"/>
        <path d="M12.3879 11.6083C12.2884 11.6083 12.1929 11.5675 12.1225 11.4949C12.0521 11.4223 12.0125 11.3239 12.0125 11.2212V6.42084L11.0444 7.1027C11.0037 7.13252 10.9577 7.15368 10.9089 7.16494C10.8602 7.1762 10.8098 7.17732 10.7607 7.16825C10.7116 7.15918 10.6647 7.1401 10.6228 7.11212C10.5809 7.08414 10.5448 7.04783 10.5167 7.00531C10.4886 6.96278 10.4689 6.9149 10.459 6.86446C10.449 6.81403 10.4489 6.76205 10.4586 6.71157C10.4684 6.66108 10.4878 6.61312 10.5158 6.57046C10.5437 6.52781 10.5796 6.49134 10.6214 6.46317L12.1762 5.36786C12.2326 5.32812 12.2985 5.30501 12.3667 5.30103C12.435 5.29705 12.5029 5.31235 12.5634 5.34528C12.6238 5.37821 12.6743 5.42752 12.7096 5.4879C12.7448 5.54827 12.7634 5.61742 12.7634 5.68789V11.2212C12.7634 11.3239 12.7238 11.4223 12.6534 11.4949C12.583 11.5675 12.4875 11.6083 12.3879 11.6083Z" fill="#F5F3FF"/>
    </symbol>

    <symbol id="garantee" viewBox="0 0 24 24">
        <path fill-rule="evenodd" clip-rule="evenodd" d="M6.66441 20.4428C3.4245 19.3238 2.70199 16.7076 2.61863 13.55C2.5992 12.8145 2.61547 12.0835 2.63473 11.3484C4.06495 11.0992 5.43454 10.6402 6.69029 9.8947C7.44733 10.3438 8.21434 10.6743 9.0501 10.9383C9.10827 10.9567 9.1199 11.0282 9.24199 11.0282C9.3011 11.0282 9.28875 11.0118 9.32982 11.0235C9.82203 11.1637 10.238 11.2598 10.7463 11.3484C10.7926 13.104 10.8316 15.0963 10.3134 16.7743C9.72856 18.6679 8.54956 19.8098 6.71617 20.4428H6.66441ZM9.31251 13.3793C9.27086 13.3368 9.2144 13.313 9.15553 13.313C9.09666 13.313 9.04021 13.3369 8.99857 13.3794L6.14893 16.2899L4.80279 14.9151C4.78219 14.894 4.75773 14.8772 4.73079 14.8658C4.70386 14.8544 4.67499 14.8485 4.64583 14.8485C4.61668 14.8485 4.5878 14.8544 4.56087 14.8658C4.53393 14.8772 4.50946 14.8939 4.48886 14.915C4.4682 14.9361 4.45181 14.9611 4.44062 14.9887C4.42944 15.0163 4.42369 15.0458 4.42369 15.0756C4.42369 15.1055 4.42944 15.135 4.44062 15.1626C4.45181 15.1901 4.4682 15.2152 4.48886 15.2363L5.99185 16.7717C6.01249 16.7928 6.037 16.8095 6.06398 16.821C6.09096 16.8324 6.11988 16.8383 6.14909 16.8383C6.1783 16.8383 6.20722 16.8324 6.2342 16.821C6.26118 16.8095 6.28569 16.7928 6.30633 16.7717L9.31255 13.7004C9.33321 13.6793 9.3496 13.6543 9.36079 13.6267C9.37197 13.5992 9.37772 13.5697 9.37772 13.5398C9.37771 13.51 9.37195 13.4805 9.36076 13.453C9.34957 13.4254 9.33317 13.4004 9.31251 13.3793ZM10.8084 8.37193V6.15767C10.8086 6.11937 10.8236 6.08269 10.8501 6.05561C10.8766 6.02853 10.9125 6.01323 10.95 6.01305H16.2228V8.37193H10.8084ZM16.6672 3.68112C16.6674 3.64282 16.6824 3.60614 16.7089 3.57906C16.7354 3.55198 16.7713 3.53668 16.8088 3.5365H19.3138C19.3513 3.53668 19.3872 3.55198 19.4137 3.57906C19.4402 3.60614 19.4552 3.64282 19.4554 3.68112V8.37193H16.6672V3.68112ZM6.00272 7.16925C6.00272 7.28767 5.90533 7.38227 5.81259 7.43828C5.69077 7.51188 5.54171 7.54578 5.401 7.54578H3.12684C2.98622 7.54578 2.83721 7.51183 2.71547 7.43823C2.62278 7.38223 2.52539 7.28767 2.52539 7.16925V6.85546C2.52539 6.73713 2.62282 6.64262 2.71547 6.58666C2.83725 6.51311 2.98622 6.47916 3.12684 6.47916L5.18607 6.48045C5.22471 6.48745 5.23485 6.49906 5.27917 6.49851L5.82724 6.49413C5.88779 6.51034 5.9878 6.56234 6.00272 6.61264V7.16925Z" fill="#C4B5FD"/>
        <path fill-rule="evenodd" clip-rule="evenodd" d="M9.36972 13.321C9.39789 13.3497 9.42024 13.3839 9.43549 13.4214C9.45074 13.459 9.45858 13.4992 9.45858 13.5399C9.45858 13.5805 9.45074 13.6208 9.43549 13.6584C9.42024 13.6959 9.39789 13.73 9.36972 13.7587L6.3635 16.8301C6.33535 16.8588 6.30193 16.8816 6.26515 16.8972C6.22837 16.9128 6.18895 16.9208 6.14914 16.9208C6.10932 16.9208 6.0699 16.9128 6.03312 16.8972C5.99634 16.8816 5.96292 16.8588 5.93477 16.8301L4.43178 15.2947C4.4036 15.2659 4.38126 15.2318 4.36601 15.1942C4.35076 15.1566 4.34291 15.1163 4.34291 15.0757C4.34291 15.035 4.35076 14.9947 4.36601 14.9571C4.38126 14.9196 4.4036 14.8854 4.43178 14.8567C4.54972 14.7356 4.74174 14.7356 4.86001 14.8567L6.14902 16.1732L8.94154 13.321C9.05971 13.2002 9.25173 13.2002 9.36972 13.321ZM17.1926 13.1421V10.6655C17.1926 10.4944 17.3285 10.3559 17.4957 10.3559C17.663 10.3559 17.7986 10.4944 17.7986 10.6655V13.1421C17.7986 13.313 17.663 13.4514 17.4957 13.4514C17.3285 13.4514 17.1926 13.3129 17.1926 13.1421ZM14.7683 13.1421V10.6655C14.7683 10.5834 14.8002 10.5047 14.8571 10.4467C14.9139 10.3886 14.9909 10.356 15.0713 10.356C15.1516 10.356 15.2287 10.3886 15.2855 10.4467C15.3424 10.5047 15.3743 10.5834 15.3743 10.6655V13.1421C15.3743 13.2241 15.3424 13.3028 15.2856 13.3608C15.2288 13.4189 15.1517 13.4514 15.0714 13.4514C15.0316 13.4515 14.9922 13.4435 14.9555 13.4279C14.9187 13.4124 14.8853 13.3896 14.8571 13.3609C14.829 13.3322 14.8067 13.2981 14.7914 13.2605C14.7762 13.223 14.7683 13.1827 14.7683 13.1421ZM12.344 13.1421V10.6655C12.344 10.6249 12.3518 10.5846 12.367 10.5471C12.3822 10.5095 12.4045 10.4754 12.4327 10.4466C12.4608 10.4179 12.4942 10.395 12.5309 10.3795C12.5677 10.3639 12.6071 10.3559 12.6469 10.3559C12.7273 10.3559 12.8043 10.3885 12.8612 10.4466C12.918 10.5046 12.95 10.5834 12.95 10.6655V13.1421C12.9499 13.2242 12.918 13.3029 12.8611 13.3609C12.8043 13.4189 12.7272 13.4515 12.6469 13.4514C12.5665 13.4514 12.4895 13.4188 12.4327 13.3608C12.3759 13.3028 12.344 13.2241 12.344 13.1421ZM18.5378 18.2084C18.5378 18.6808 18.1611 19.0656 17.6979 19.0656C17.235 19.0656 16.8583 18.6808 16.8583 18.2084C16.8583 17.7352 17.235 17.3504 17.6979 17.3504C18.1611 17.3504 18.5378 17.7352 18.5378 18.2084ZM13.1962 18.2084C13.1962 18.6808 12.8195 19.0656 12.3566 19.0656C11.8939 19.0656 11.517 18.6808 11.517 18.2084C11.517 17.7352 11.8938 17.3504 12.3566 17.3504C12.8195 17.3504 13.1962 17.7352 13.1962 18.2084ZM6.69033 20.3646C8.54496 19.7242 9.67306 18.5736 10.2364 16.7494C10.7402 15.1183 10.7136 13.1704 10.6674 11.4183C10.2906 11.3525 9.91679 11.2695 9.54718 11.1697C9.46702 11.1483 9.38785 11.1256 9.30818 11.1029C9.28648 11.108 9.2643 11.1107 9.24204 11.1108C9.16084 11.1108 9.08293 11.0761 9.02625 11.0171C8.17647 10.7487 7.37975 10.3992 6.69033 9.99017C5.53188 10.6777 4.10995 11.1749 2.71376 11.4183C2.66782 13.1705 2.64045 15.1183 3.14452 16.7495C3.7081 18.5736 4.8362 19.7242 6.69033 20.3646ZM21.0959 8.90863H8.87995L9.45705 10.5024C9.98217 10.6543 10.4747 10.7649 11.008 10.8465C11.1531 10.8689 11.2624 10.9944 11.2662 11.1441C11.2986 12.342 11.3334 13.642 11.2064 14.8986L17.8573 14.8991C18.4742 14.8991 18.9972 14.5576 19.2564 13.9856L21.3648 9.33923C21.3863 9.29311 21.3959 9.24217 21.3928 9.1912C21.3897 9.14023 21.374 9.09089 21.3471 9.04784C21.3202 9.00478 21.2831 8.96942 21.2391 8.94507C21.1952 8.92071 21.1459 8.90818 21.0959 8.90863ZM10.8893 6.15766C10.8893 6.12376 10.9172 6.09558 10.9501 6.09558H16.1421V8.28938H10.8893V6.15766ZM16.8088 3.61902H19.3138C19.3468 3.61902 19.3746 3.64721 19.3746 3.68111V8.28938H16.7481V3.68111C16.7481 3.64721 16.7759 3.61902 16.8088 3.61902ZM5.92197 6.63764V7.16924C5.92197 7.30516 5.69446 7.46323 5.40104 7.46323H3.12689C2.83374 7.46323 2.60623 7.30516 2.60623 7.16924V6.85544C2.60623 6.7198 2.83374 6.56173 3.12689 6.56173H5.172C5.19779 6.56643 5.21497 6.58149 5.28026 6.58103L5.80677 6.57398C5.87012 6.59093 5.91074 6.62041 5.92197 6.63764ZM17.8573 15.5182C18.7163 15.5182 19.4451 15.0426 19.8064 14.2462L21.9148 9.59964C22.193 8.98734 21.7559 8.28938 21.0959 8.28938H19.9805V3.68111C19.9805 3.30546 19.6815 3 19.3138 3H16.8088C16.4411 3 16.1421 3.30546 16.1421 3.68111V5.47655H10.9501C10.5821 5.47655 10.2833 5.78201 10.2833 6.15766V8.28938H8.65623L8.16262 6.92642C7.94585 6.32725 7.4045 5.94248 6.78041 5.94248C6.77401 5.94248 6.76711 5.94248 6.76076 5.94298L5.86088 5.95445C5.81084 5.9467 5.76031 5.94268 5.7097 5.94243H3.12689C2.49514 5.94243 2 6.34365 2 6.85544V7.16924C2 7.68104 2.49514 8.08225 3.12689 8.08225H5.40104C6.03302 8.08225 6.52788 7.68104 6.52788 7.16924L6.52432 6.56486L6.78046 6.56173C7.1535 6.56173 7.46455 6.78295 7.59427 7.1411L8.72417 10.263C8.03909 10.0142 7.40224 9.71027 6.84813 9.36567C6.80062 9.33611 6.74607 9.32048 6.69044 9.32048C6.63482 9.32048 6.58027 9.33611 6.53275 9.36567C5.34135 10.106 3.83321 10.6235 2.37309 10.8465C2.30271 10.8573 2.23829 10.893 2.1911 10.9475C2.1439 11.0019 2.11694 11.0715 2.11493 11.1442C2.06438 13.0103 2.00744 15.1253 2.56665 16.9357C3.19479 18.9693 4.51343 20.2939 6.59709 20.9849C6.65792 21.005 6.72341 21.005 6.78425 20.9849C8.72643 20.3406 10.0035 19.1456 10.6768 17.3395C10.8101 17.3572 11.0402 17.3504 11.1806 17.3504C10.4997 18.324 11.1821 19.6846 12.3565 19.6846C13.5338 19.6846 14.2119 18.3195 13.5321 17.3504H16.5223C15.8425 18.3194 16.5205 19.6846 17.6979 19.6846C18.8727 19.6846 19.5545 18.3238 18.8738 17.3504H20.0305C20.1983 17.3504 20.3336 17.2119 20.3336 17.041C20.3336 16.8702 20.1983 16.7314 20.0305 16.7314H10.8745C10.9848 16.338 11.0678 15.9319 11.1298 15.5179L17.8573 15.5182Z" fill="#8B5CF6"/>
    </symbol>

    <symbol id="info" viewBox="0 0 24 24">
        <path d="M15.479 19.4294V21H8.52014V19.4294H10.1803L10.4727 16.7739L10.5416 16.1415V16.1289H13.4533L13.4576 16.1415L13.5264 16.7739L13.8188 19.4294H15.479Z" fill="#8B5CF6"/>
        <path d="M13.5264 16.7739H10.4728L10.5416 16.1415V16.1289H13.4533L13.4576 16.1415L13.5264 16.7739Z" fill="#7C3AED"/>
        <path d="M13.8171 19.4281H8.51929V20.9983H15.4798V19.4281H13.8171Z" fill="#A78BFA"/>
        <path d="M21.2895 3H2.70965C2.52128 3.00044 2.34078 3.07363 2.20775 3.2035C2.07471 3.33337 2 3.50932 2 3.69276V15.4479C2 15.6313 2.07471 15.8073 2.20775 15.9371C2.34078 16.067 2.52128 16.1402 2.70965 16.1406H21.2465C21.3455 16.1407 21.4435 16.1217 21.5349 16.0849C21.6264 16.048 21.7094 15.994 21.7794 15.9258C21.8494 15.8577 21.9049 15.7768 21.9428 15.6877C21.9806 15.5987 22.0001 15.5032 22 15.4068V3.69276C22 3.50917 21.9252 3.33309 21.7919 3.2032C21.6587 3.07331 21.478 3.00022 21.2895 3Z" fill="#C4B5FD"/>
        <path d="M3.32031 4.20044H20.6787V13.7625H3.32031V4.20044Z" fill="#4C1D95"/>
        <path d="M20.6787 4.20044V12.8913H7.21695C6.53494 12.891 5.88096 12.627 5.3987 12.1574C4.91644 11.6877 4.64536 11.0509 4.64502 10.3867V4.20044H20.6787Z" fill="#6D28D9"/>
        <path d="M18.0553 10.9269C18.0608 10.9135 18.068 10.9008 18.0768 10.8892V10.885C18.1979 10.6839 18.2959 10.4704 18.3692 10.2484C18.5687 9.62673 18.5649 8.96004 18.3582 8.3406C18.1515 7.72116 17.7522 7.1796 17.2156 6.79087C16.679 6.40214 16.0315 6.18546 15.3629 6.17084C14.6942 6.15621 14.0374 6.34435 13.4834 6.70922C13.1008 6.95926 12.7792 7.28812 12.5415 7.67254C12.3214 8.0248 12.1747 8.41584 12.1098 8.82333C12.045 9.23081 12.0632 9.64676 12.1634 10.0474C12.2637 10.448 12.444 10.8255 12.6941 11.1582C12.9442 11.491 13.2592 11.7724 13.621 11.9866C14.1356 12.2796 14.7196 12.4369 15.3156 12.4431C15.6526 12.4456 15.9875 12.3903 16.3048 12.2798C16.5305 12.1995 16.7492 12.1015 16.9585 11.9866L16.9628 11.9908L17.8875 12.8913H20.0681C19.1305 11.9824 18.0553 10.9311 18.0553 10.9269Z" fill="#4C1D95"/>
        <path d="M21.625 14.9319C21.5921 15.0626 21.522 15.1816 21.4229 15.2753C21.2779 15.4147 21.0825 15.4929 20.8788 15.4929C20.6751 15.4929 20.4796 15.4147 20.3347 15.2753L18.7821 13.7633H20.6788V13.4911L21.4229 14.2157C21.5189 14.3068 21.5883 14.4212 21.6238 14.5471C21.6593 14.6729 21.6597 14.8058 21.625 14.9319Z" fill="#DDD6FE"/>
        <path d="M20.6787 13.4902V13.7624H18.782L17.8875 12.8912H20.068C20.283 13.1007 20.4938 13.3059 20.6787 13.4902Z" fill="#5B21B6"/>
        <path d="M21.7734 13.8948L18.4024 10.612C18.8092 9.95622 18.9555 9.17809 18.8136 8.4245C18.6717 7.6709 18.2513 6.99399 17.632 6.52154C17.0126 6.04909 16.2371 5.81381 15.4518 5.8601C14.6665 5.9064 13.9257 6.23108 13.3694 6.77284C12.8131 7.3146 12.4797 8.03596 12.4322 8.80072C12.3846 9.56549 12.6262 10.3207 13.1114 10.9239C13.5965 11.5271 14.2916 11.9364 15.0654 12.0746C15.8393 12.2128 16.6383 12.0704 17.3117 11.6741L20.6827 14.9574C20.8274 15.0982 21.0235 15.1773 21.2281 15.1773C21.4326 15.1773 21.6287 15.0982 21.7734 14.9574C21.9181 14.8165 21.9994 14.6254 21.9994 14.4261C21.9994 14.2268 21.9181 14.0357 21.7734 13.8948Z" fill="#A78BFA"/>
        <path d="M15.6433 12.1252C17.4233 12.1252 18.8663 10.7199 18.8663 8.98643C18.8663 7.25293 17.4233 5.84766 15.6433 5.84766C13.8632 5.84766 12.4202 7.25293 12.4202 8.98643C12.4202 10.7199 13.8632 12.1252 15.6433 12.1252Z" fill="#8B5CF6"/>
        <path d="M21.7734 13.8948L18.3998 10.6086C18.2648 10.8248 18.1041 11.0247 17.9211 11.2042C17.8326 11.2901 17.7392 11.3709 17.6411 11.4463L20.8595 14.5797C21.0041 14.7204 21.2002 14.7995 21.4046 14.7995C21.6091 14.7995 21.8051 14.7204 21.9497 14.5797L21.9902 14.5378C22.0083 14.4216 21.9982 14.3028 21.9605 14.1911C21.9229 14.0795 21.8588 13.978 21.7734 13.8948Z" fill="#C4B5FD"/>
        <path d="M15.6432 5.84766C14.8752 5.84689 14.1323 6.11439 13.5496 6.60157C13.1416 7.23739 12.9808 7.99441 13.0963 8.73567C13.2118 9.47692 13.5959 10.1534 14.1792 10.6428C14.7624 11.1322 15.5063 11.402 16.2762 11.4036C17.0461 11.4052 17.7911 11.1383 18.3764 10.6513C18.6817 10.1762 18.8508 9.63008 18.8661 9.06978C18.8814 8.50948 18.7423 7.95542 18.4633 7.46516C18.1844 6.9749 17.7757 6.56632 17.2798 6.28188C16.7839 5.99743 16.2188 5.8475 15.6432 5.84766Z" fill="#C4B5FD"/>
    </symbol>

    <symbol id="delivery" viewBox="0 0 24 24">
        <path d="M23.7512 13.1048L21.689 9.53772C21.638 9.44974 21.5636 9.37653 21.4734 9.32569C21.3832 9.27486 21.2805 9.24825 21.176 9.24863H17.9862V6.30379C17.986 6.2233 17.9527 6.14618 17.8937 6.08926C17.8347 6.03235 17.7548 6.00026 17.6713 6H4.92746C4.84402 6.00026 4.76408 6.03235 4.70508 6.08926C4.64608 6.14618 4.61282 6.2233 4.61255 6.30379V15.911C4.61255 16.028 4.66071 16.1401 4.74644 16.2228C4.83217 16.3055 4.94844 16.352 5.06968 16.352H23.7258C23.7618 16.3521 23.7976 16.3454 23.8309 16.3321C23.8643 16.3189 23.8945 16.2994 23.92 16.2748C23.9455 16.2502 23.9657 16.221 23.9795 16.1888C23.9932 16.1567 24.0002 16.1222 24.0001 16.0874V14.0358C24.0002 13.7102 23.9145 13.3898 23.7512 13.1048Z" fill="#8B5CF6"/>
        <path d="M24.0002 14.0357V15.4077H20.0201C19.7744 15.4077 19.5387 15.3135 19.365 15.1459C19.1912 14.9783 19.0936 14.751 19.0936 14.514V9.24854H21.1761C21.2806 9.24816 21.3833 9.27477 21.4735 9.3256C21.5637 9.37644 21.6382 9.44965 21.6891 9.53763L23.7513 13.1048C23.9147 13.3897 24.0003 13.7101 24.0002 14.0357Z" fill="#A78BFA"/>
        <path d="M22.6845 16.3535C22.6863 16.6907 22.5778 17.0199 22.3747 17.2943C22.1674 17.582 21.8703 17.7983 21.5267 17.9116C21.1831 18.025 20.8109 18.0295 20.4645 17.9244C20.118 17.8194 19.8154 17.6104 19.6008 17.3278C19.3861 17.0452 19.2707 16.7038 19.2712 16.3535C19.2712 15.9169 19.451 15.4981 19.7711 15.1894C20.0912 14.8806 20.5252 14.7072 20.9779 14.7072C21.4305 14.7072 21.8646 14.8806 22.1846 15.1894C22.5047 15.4981 22.6845 15.9169 22.6845 16.3535Z" fill="#A5B4FC"/>
        <path d="M17.9862 6.30379V15.4568H7.59453C7.349 15.4568 7.10587 15.4101 6.87903 15.3195C6.6522 15.2289 6.44608 15.096 6.27247 14.9285C6.09885 14.761 5.96113 14.5622 5.86717 14.3434C5.77321 14.1245 5.72485 13.89 5.72485 13.6531V6H17.6713C17.7547 6.00026 17.8347 6.03235 17.8936 6.08926C17.9526 6.14618 17.9859 6.2233 17.9862 6.30379Z" fill="#A78BFA"/>
        <path d="M22.6845 16.3535C22.6863 16.6907 22.5778 17.0199 22.3747 17.2943C22.2248 17.338 22.069 17.3595 21.9125 17.358C21.4599 17.3579 21.0259 17.1844 20.7058 16.8756C20.3858 16.5669 20.206 16.1482 20.2058 15.7116C20.2043 15.3707 20.3145 15.038 20.5207 14.761C20.7747 14.6939 21.0414 14.6841 21.2999 14.7326C21.5584 14.7811 21.8018 14.8865 22.0112 15.0406C22.2206 15.1947 22.3903 15.3934 22.5071 15.6211C22.6239 15.8488 22.6846 16.0994 22.6845 16.3535Z" fill="#C4B5FD"/>
        <path d="M11.6778 16.3535C11.6775 16.6601 11.5885 16.9605 11.4208 17.2209C11.2531 17.4813 11.0134 17.6914 10.7286 17.8275C10.4438 17.9635 10.1253 18.0202 9.80897 17.991C9.49261 17.9619 9.19097 17.8481 8.93802 17.6625C8.68507 17.477 8.49086 17.2269 8.37727 16.9406C8.26368 16.6543 8.23522 16.343 8.29509 16.042C8.35496 15.7409 8.50079 15.4619 8.71615 15.2364C8.9315 15.011 9.20784 14.848 9.51402 14.7659C9.66211 14.7222 9.81629 14.7007 9.97116 14.7022C10.1956 14.7024 10.4179 14.7453 10.6252 14.8284C10.8325 14.9115 11.0208 15.0332 11.1793 15.1866C11.3378 15.34 11.4634 15.522 11.5489 15.7222C11.6345 15.9224 11.6783 16.1369 11.6778 16.3535Z" fill="#A5B4FC"/>
        <path d="M11.6778 16.3535C11.6771 16.6903 11.5689 17.0188 11.3679 17.2943C11.2181 17.338 11.0623 17.3595 10.9057 17.358C10.4531 17.3578 10.0191 17.1843 9.69911 16.8756C9.37908 16.5669 9.19924 16.1482 9.1991 15.7116C9.19831 15.3723 9.30851 15.0413 9.51401 14.7659C9.6621 14.7222 9.81628 14.7007 9.97115 14.7022C10.1956 14.7024 10.4179 14.7453 10.6252 14.8284C10.8325 14.9115 11.0208 15.0332 11.1793 15.1866C11.3378 15.34 11.4634 15.522 11.5489 15.7222C11.6345 15.9224 11.6782 16.1369 11.6778 16.3535Z" fill="#C4B5FD"/>
        <path d="M6.11949 13.8927H1.28404C1.183 13.8927 1.08611 13.854 1.01467 13.7851C0.943227 13.7162 0.903092 13.6227 0.903092 13.5252C0.903092 13.4278 0.943227 13.3343 1.01467 13.2654C1.08611 13.1964 1.183 13.1577 1.28404 13.1577H6.11949C6.22052 13.1577 6.31742 13.1964 6.38886 13.2654C6.4603 13.3343 6.50043 13.4278 6.50043 13.5252C6.50043 13.6227 6.4603 13.7162 6.38886 13.7851C6.31742 13.854 6.22052 13.8927 6.11949 13.8927ZM9.97211 12.2214H3.22533C3.1243 12.2214 3.0274 12.1826 2.95596 12.1137C2.88452 12.0448 2.84438 11.9513 2.84438 11.8539C2.84438 11.7564 2.88452 11.6629 2.95596 11.594C3.0274 11.5251 3.1243 11.4864 3.22533 11.4864H9.97211C10.0731 11.4864 10.17 11.5251 10.2415 11.594C10.3129 11.6629 10.353 11.7564 10.353 11.8539C10.353 11.9513 10.3129 12.0448 10.2415 12.1137C10.17 12.1826 10.0731 12.2214 9.97211 12.2214ZM3.01555 10.281H0.380944C0.279912 10.281 0.183017 10.2423 0.111576 10.1734C0.0401351 10.1044 0 10.011 0 9.91351C0 9.81604 0.0401351 9.72257 0.111576 9.65365C0.183017 9.58474 0.279912 9.54602 0.380944 9.54602H3.01555C3.11659 9.54602 3.21348 9.58474 3.28492 9.65365C3.35636 9.72257 3.3965 9.81604 3.3965 9.91351C3.3965 10.011 3.35636 10.1044 3.28492 10.1734C3.21348 10.2423 3.11659 10.281 3.01555 10.281ZM7.23997 8.25097H2.58941C2.48837 8.25097 2.39148 8.21226 2.32004 8.14334C2.2486 8.07442 2.20846 7.98095 2.20846 7.88348C2.20846 7.78602 2.2486 7.69255 2.32004 7.62363C2.39148 7.55471 2.48837 7.51599 2.58941 7.51599H7.23997C7.34101 7.51599 7.4379 7.55471 7.50934 7.62363C7.58078 7.69255 7.62092 7.78602 7.62092 7.88348C7.62092 7.98095 7.58078 8.07442 7.50934 8.14334C7.4379 8.21226 7.34101 8.25097 7.23997 8.25097Z" fill="#A5B4FC"/>
    </symbol>

    <symbol id="package" viewBox="0 0 24 24">
        <path d="M11.4086 2L2 6.75613V17.6817L12.7174 22H12.7217V21.9978L22 16.5346V5.61075L11.4086 2Z" fill="#DDD6FE"/>
        <path d="M22 5.61075L11.4086 2L2 6.75613V17.6817L12.7174 22H12.7217V11.071L12.7196 11.0701L22 5.61075Z" fill="#C4B5FD"/>
        <path d="M12.7217 11.0709V22H12.7174L2 17.6817V6.75696L3.26062 7.26448L12.7217 11.0709Z" fill="#8B5CF6"/>
        <path d="M12.7217 11.071V20.4989L5.67085 17.6559C4.9591 17.3687 4.34946 16.8753 3.92016 16.2393C3.49085 15.6032 3.26148 14.8534 3.26147 14.086V7.26453L12.7217 11.071Z" fill="#A78BFA"/>
        <path d="M17.4932 4.07312L17.3039 4.17635L8.1483 9.23011L8.13109 12.7441L6.68116 12.2022L5.73462 11.8452V8.26237L15.2775 3.32043L17.4932 4.07312Z" fill="#5B21B6"/>
        <path d="M17.3146 4.17638L8.15891 9.23015L8.1417 12.7441L6.69177 12.2022V8.75273L16.2389 3.81079L17.3146 4.17638Z" fill="#6D28D9"/>
    </symbol>

    <symbol id="board" viewBox="0 0 24 24">
        <path d="M11.953 3.31785V3.38151H6.92078V3.31785L7.25546 2H11.6183L11.953 3.31785Z" fill="#EDE9FE"/>
        <path d="M2 3.31787H16.8742V22H2V3.31787Z" fill="#4C1D95"/>
        <path d="M3.34399 4.62366H15.5283V20.6968H3.34399V4.62366Z" fill="#C4B5FD"/>
        <path d="M15.5283 4.62366V19.7118H7.02238C6.74673 19.7118 6.47378 19.6592 6.21913 19.5569C5.96448 19.4547 5.73312 19.3048 5.53827 19.1159C5.34342 18.927 5.18889 18.7027 5.08353 18.4559C4.97816 18.209 4.92402 17.9445 4.92419 17.6774V4.62366H15.5283Z" fill="#A78BFA"/>
        <path d="M5.00588 6.20044C4.9073 6.20044 4.81276 6.23835 4.74301 6.30586C4.67327 6.37336 4.63403 6.46492 4.63391 6.56044V8.40388C4.63403 8.4994 4.67327 8.59096 4.74301 8.65847C4.81276 8.72597 4.9073 8.76388 5.00588 8.76388H6.90831C7.00685 8.76388 7.10134 8.72595 7.17102 8.65844C7.24069 8.59093 7.27983 8.49936 7.27983 8.40388V6.59227C7.27983 6.54078 7.26936 6.48979 7.24901 6.44222C7.22866 6.39466 7.19884 6.35144 7.16124 6.31505C7.12364 6.27866 7.07902 6.24981 7.0299 6.23014C6.98079 6.21048 6.92816 6.20038 6.87502 6.20044H5.00588ZM5.00588 11.3247C4.90722 11.3247 4.81261 11.3627 4.74286 11.4303C4.6731 11.4979 4.63391 11.5896 4.63391 11.6852V13.5286C4.63403 13.6241 4.67327 13.7157 4.74301 13.7832C4.81276 13.8507 4.9073 13.8886 5.00588 13.8886H6.90831C7.00685 13.8886 7.10134 13.8507 7.17102 13.7832C7.24069 13.7157 7.27983 13.6241 7.27983 13.5286V11.717C7.27983 11.613 7.23718 11.5132 7.16127 11.4396C7.08535 11.3661 6.98239 11.3247 6.87502 11.3247H5.00588ZM5.00588 16.3751C4.95705 16.375 4.90869 16.3843 4.86356 16.4023C4.81844 16.4204 4.77743 16.4469 4.74288 16.4804C4.70834 16.5138 4.68093 16.5535 4.66223 16.5972C4.64354 16.6409 4.63391 16.6878 4.63391 16.7351V18.5807C4.63403 18.6762 4.67327 18.7677 4.74301 18.8352C4.81276 18.9027 4.9073 18.9407 5.00588 18.9407H6.90831C7.00685 18.9407 7.10134 18.9027 7.17102 18.8352C7.24069 18.7677 7.27983 18.6761 7.27983 18.5807V16.7669C7.27983 16.7154 7.26936 16.6644 7.24901 16.6168C7.22866 16.5693 7.19884 16.5261 7.16124 16.4897C7.12364 16.4533 7.07902 16.4244 7.0299 16.4048C6.98079 16.3851 6.92816 16.375 6.87502 16.3751H5.00588Z" fill="#6D28D9"/>
        <path d="M13.9712 7.79312H11.3466C11.2583 7.79312 11.1736 7.75914 11.1112 7.69864C11.0487 7.63814 11.0137 7.55609 11.0137 7.47054C11.0137 7.38499 11.0487 7.30294 11.1112 7.24244C11.1736 7.18195 11.2583 7.14796 11.3466 7.14796H13.9712C14.0595 7.14796 14.1442 7.18195 14.2066 7.24244C14.269 7.30294 14.3041 7.38499 14.3041 7.47054C14.3041 7.55609 14.269 7.63814 14.2066 7.69864C14.1442 7.75914 14.0595 7.79312 13.9712 7.79312ZM10.0025 7.79312H8.65315C8.56486 7.79312 8.48019 7.75914 8.41775 7.69864C8.35532 7.63814 8.32025 7.55609 8.32025 7.47054C8.32025 7.38499 8.35532 7.30294 8.41775 7.24244C8.48019 7.18195 8.56486 7.14796 8.65315 7.14796H10.0025C10.0908 7.14796 10.1755 7.18195 10.2379 7.24244C10.3004 7.30294 10.3354 7.38499 10.3354 7.47054C10.3354 7.55609 10.3004 7.63814 10.2379 7.69864C10.1755 7.75914 10.0908 7.79312 10.0025 7.79312ZM13.9712 12.788H12.6706C12.5824 12.788 12.4977 12.754 12.4352 12.6935C12.3728 12.633 12.3377 12.5509 12.3377 12.4654C12.3377 12.3798 12.3728 12.2978 12.4352 12.2373C12.4977 12.1768 12.5824 12.1428 12.6706 12.1428H13.9712C14.0595 12.1428 14.1442 12.1768 14.2066 12.2373C14.269 12.2978 14.3041 12.3798 14.3041 12.4654C14.3041 12.5509 14.269 12.633 14.2066 12.6935C14.1442 12.754 14.0595 12.788 13.9712 12.788ZM11.3155 12.788H8.65227C8.56397 12.788 8.4793 12.754 8.41687 12.6935C8.35444 12.633 8.31936 12.5509 8.31936 12.4654C8.31936 12.3798 8.35444 12.2978 8.41687 12.2373C8.4793 12.1768 8.56397 12.1428 8.65227 12.1428H11.3155C11.4038 12.1428 11.4885 12.1768 11.5509 12.2373C11.6133 12.2978 11.6484 12.3798 11.6484 12.4654C11.6484 12.5509 11.6133 12.633 11.5509 12.6935C11.4885 12.754 11.4038 12.788 11.3155 12.788ZM6.18522 8.04688H6.17235C6.12828 8.04515 6.08501 8.03499 6.04501 8.01698C6.00502 7.99897 5.96909 7.97346 5.93932 7.94194L5.52696 7.50323C5.49752 7.47197 5.47473 7.43539 5.45988 7.39559C5.44503 7.35579 5.43842 7.31355 5.44042 7.27127C5.44242 7.229 5.45299 7.18752 5.47153 7.1492C5.49008 7.11089 5.51622 7.07648 5.54849 7.04796C5.58075 7.01944 5.6185 6.99735 5.65957 6.98296C5.70064 6.96857 5.74424 6.96216 5.78787 6.9641C5.8315 6.96604 5.8743 6.97628 5.91385 6.99425C5.95339 7.01222 5.98889 7.03756 6.01833 7.06882L6.20387 7.26538L7.94562 5.68301C8.00996 5.62455 8.09562 5.59325 8.18378 5.59599C8.27193 5.59873 8.35535 5.6353 8.41568 5.69764C8.47601 5.75998 8.50832 5.84299 8.50549 5.92841C8.50266 6.01383 8.46493 6.09466 8.40059 6.15312L6.41293 7.95957C6.35131 8.01577 6.26984 8.047 6.18522 8.04688ZM6.18522 13.1712H6.17235C6.12828 13.1695 6.08501 13.1593 6.04501 13.1413C6.00502 13.1233 5.96909 13.0978 5.93932 13.0662L5.52696 12.6275C5.49752 12.5963 5.47473 12.5597 5.45988 12.5199C5.44503 12.4801 5.43842 12.4378 5.44042 12.3956C5.44242 12.3533 5.45299 12.3118 5.47153 12.2735C5.49008 12.2352 5.51622 12.2008 5.54849 12.1723C5.58075 12.1437 5.6185 12.1217 5.65957 12.1073C5.70064 12.0929 5.74424 12.0865 5.78787 12.0884C5.8315 12.0903 5.8743 12.1006 5.91385 12.1186C5.95339 12.1365 5.98889 12.1619 6.01833 12.1931L6.20387 12.3897L7.94562 10.8073C8.00996 10.7489 8.09562 10.7175 8.18378 10.7203C8.27193 10.723 8.35535 10.7596 8.41568 10.8219C8.47601 10.8843 8.50832 10.9673 8.50549 11.0527C8.50266 11.1381 8.46493 11.219 8.40059 11.2774L6.41293 13.0839C6.35133 13.1401 6.26985 13.1713 6.18522 13.1712ZM6.18522 18.2211H6.17235C6.12828 18.2193 6.08501 18.2092 6.04501 18.1912C6.00502 18.1732 5.96909 18.1477 5.93932 18.1161L5.52563 17.6774C5.49446 17.6465 5.47003 17.6097 5.45381 17.5694C5.43758 17.5291 5.42988 17.4861 5.43117 17.4429C5.43246 17.3996 5.44271 17.3571 5.4613 17.3178C5.4799 17.2784 5.50647 17.2432 5.53944 17.214C5.5724 17.1848 5.61108 17.1624 5.65317 17.148C5.69527 17.1336 5.73992 17.1275 5.78447 17.1302C5.82903 17.1329 5.87257 17.1442 5.91252 17.1635C5.95246 17.1828 5.98799 17.2097 6.017 17.2426L6.20253 17.4391L7.94429 15.8563C8.00925 15.8012 8.09379 15.7727 8.18004 15.7768C8.26629 15.781 8.34751 15.8174 8.40655 15.8785C8.46559 15.9395 8.49784 16.0204 8.49648 16.1041C8.49512 16.1878 8.46026 16.2677 8.39926 16.3269L6.4116 18.1333C6.3504 18.1894 6.26945 18.2208 6.18522 18.2211ZM14.0582 17.9695H11.434C11.3457 17.9695 11.261 17.9355 11.1986 17.875C11.1362 17.8145 11.1011 17.7324 11.1011 17.6469C11.1011 17.5613 11.1362 17.4793 11.1986 17.4188C11.261 17.3583 11.3457 17.3243 11.434 17.3243H14.0582C14.1465 17.3243 14.2312 17.3583 14.2936 17.4188C14.356 17.4793 14.3911 17.5613 14.3911 17.6469C14.3911 17.7324 14.356 17.8145 14.2936 17.875C14.2312 17.9355 14.1465 17.9695 14.0582 17.9695ZM10.0882 17.9695H8.74015C8.65186 17.9695 8.56719 17.9355 8.50475 17.875C8.44232 17.8145 8.40725 17.7324 8.40725 17.6469C8.40725 17.5613 8.44232 17.4793 8.50475 17.4188C8.56719 17.3583 8.65186 17.3243 8.74015 17.3243H10.0882C10.1765 17.3243 10.2612 17.3583 10.3236 17.4188C10.386 17.4793 10.4211 17.5613 10.4211 17.6469C10.4211 17.7324 10.386 17.8145 10.3236 17.875C10.2612 17.9355 10.1765 17.9695 10.0882 17.9695Z" fill="#EDE9FE"/>
        <path d="M22 10.8688C22 10.9544 21.965 11.0364 21.9025 11.0969C21.8401 11.1574 21.7554 11.1914 21.6671 11.1914C21.5788 11.1914 21.4942 11.1574 21.4317 11.0969C21.3693 11.0364 21.3342 10.9544 21.3342 10.8688V7.91828C21.312 7.84516 21.2233 7.67312 20.8326 7.67312H20.498V7.08387C20.4987 7.06513 20.4972 7.04637 20.4935 7.02796H20.8331C21.0982 6.99734 21.3654 7.06502 21.5811 7.21739C21.7968 7.36977 21.945 7.59557 21.996 7.84946L22 10.8688ZM20.5219 18.6882L19.5143 22L18.5023 18.6882H20.5219Z" fill="#6D28D9"/>
        <path d="M18.5023 10.8688H20.5219V18.6881H18.5023V10.8688Z" fill="#C4B5FD"/>
        <path d="M20.5223 7.08384V10.8688H18.5027V7.08384C18.5027 6.82433 18.6091 6.57544 18.7985 6.39194C18.9878 6.20844 19.2447 6.10535 19.5125 6.10535C19.7803 6.10535 20.0372 6.20844 20.2265 6.39194C20.4159 6.57544 20.5223 6.82433 20.5223 7.08384Z" fill="#6D28D9"/>
        <path d="M20.5219 18.6882L19.5143 22.0001V18.6882H20.5219Z" fill="#7C3AED"/>
        <path d="M19.5143 10.8688H20.5219V18.6881H19.5143V10.8688Z" fill="#A78BFA"/>
        <path d="M20.5224 7.08389V10.8688H19.5148V6.10754C19.7718 6.1074 20.0191 6.20277 20.2057 6.374C20.3923 6.54523 20.5041 6.77929 20.5179 7.02797C20.5216 7.04639 20.5231 7.06515 20.5224 7.08389Z" fill="#7C3AED"/>
    </symbol>

    <symbol id="close" viewBox="0 0 24 20">
        <g clip-path="url(#clip0_1122_2586)">
        <rect width="24.1335" height="4.02522" rx="2.01261" transform="matrix(0.703941 0.710258 0.703941 -0.710258 2 2.85901)" fill="#A78BFA"/>
        <rect width="24.1332" height="4.02516" rx="2.01258" transform="matrix(0.704164 -0.710038 -0.704164 -0.710038 5.00623 19.9939)" fill="#A78BFA"/>
        </g>
        <defs>
        <clipPath id="clip0_1122_2586">
        <rect width="24" height="20" fill="white"/>
        </clipPath>
        </defs>
    </symbol>

    <symbol id="burger" viewBox="0 0 24 16">
        <g clip-path="url(#clip0_1122_2356)">
        <rect width="24" height="4" rx="2" />
        <rect y="6" width="24" height="4" rx="2" />
        <rect y="12" width="24" height="4" rx="2" />
        </g>
        <defs>
        <clipPath id="clip0_1122_2356">
        <rect width="24" height="16" />
        </clipPath>
        </defs>
    </symbol>

</svg>
