<svg width="305.000000" height="74.000000" viewBox="0 0 305 74" fill="none" xmlns="http://www.w3.org/2000/svg" xmlns:xlink="http://www.w3.org/1999/xlink">
	<desc>
			Created with Pixso.
	</desc>
	<defs/>
	<mask id="mask5_17" mask-type="alpha" maskUnits="userSpaceOnUse" x="0.000000" y="0.000000" width="50.000000" height="74.000000">
		<path id="Vector" d="M0 0L50 0L50 74L0 74L0 0Z" fill="#000000" fill-opacity="1.000000" fill-rule="evenodd"/>
	</mask>
	<g mask="url(#mask5_17)">
		<path id="Vector" d="M25.9 0C23.1 0 20.42 1.1 18.44 3.05C16.46 5.01 15.35 7.66 15.35 10.43L15.35 15.17L10.55 15.17C9.17 15.17 7.79 15.44 6.51 15.96C5.23 16.49 4.06 17.26 3.08 18.23C2.1 19.2 1.32 20.35 0.79 21.62C0.26 22.88 -0.01 24.24 -0.01 25.61L-0.01 36.04L15.35 36.04L15.35 45.53L10.55 45.53C7.75 45.52 5.06 46.62 3.08 48.58C1.1 50.54 -0.01 53.19 -0.01 55.96L-0.01 73.99L10.56 73.99C11.94 73.99 13.31 73.72 14.59 73.19C15.87 72.67 17.04 71.9 18.02 70.93C19 69.96 19.77 68.81 20.3 67.54C20.83 66.28 21.1 64.92 21.1 63.55L21.12 63.55L21.12 56.66L21.09 56.67L21.09 12.79L21.11 12.79L21.11 10.43C21.11 9.17 21.62 7.97 22.52 7.08C23.42 6.19 24.63 5.68 25.91 5.68L44.24 5.68L44.24 10.43C44.24 11.69 43.73 12.89 42.83 13.78C41.93 14.67 40.71 15.17 39.44 15.17L23.28 15.17L23.28 20.86L39.44 20.86C42.24 20.86 44.92 19.76 46.9 17.81C48.88 15.85 49.99 13.2 50 10.43L50 -0.01L25.9 0ZM15.35 30.35L5.75 30.35L5.75 25.61C5.76 24.35 6.26 23.15 7.16 22.25C8.06 21.36 9.28 20.86 10.56 20.86L15.35 20.86L15.35 30.35ZM15.35 63.56C15.35 64.81 14.84 66.02 13.94 66.91C13.04 67.8 11.82 68.3 10.55 68.3L5.75 68.3L5.75 55.96C5.75 54.71 6.26 53.5 7.16 52.61C8.06 51.72 9.28 51.22 10.55 51.22L15.35 51.22L15.35 63.56ZM23.28 36.04L35.39 36.04L35.39 40.79C35.39 42.05 34.88 43.25 33.98 44.14C33.08 45.03 31.86 45.53 30.59 45.53L23.28 45.53L23.28 51.22L30.59 51.22C31.98 51.22 33.35 50.95 34.63 50.43C35.91 49.91 37.08 49.14 38.06 48.17C39.04 47.2 39.82 46.05 40.35 44.78C40.88 43.52 41.15 42.16 41.15 40.79L41.15 40.79L41.15 30.35L23.28 30.35L23.28 36.04Z" fill="#A78BFA" fill-opacity="1.000000" fill-rule="nonzero"/>
	</g>
	<path id="FromBoard Delivery" d="M235.19 29.4C235.19 30.58 234.15 31.54 232.87 31.54C231.59 31.54 230.55 30.58 230.55 29.4C230.55 28.21 231.59 27.25 232.87 27.25C234.15 27.25 235.19 28.21 235.19 29.4ZM59.86 46L55.12 46L55.12 28.54L67.4 28.54L67.4 32.36L59.86 32.36L59.86 35.36L66.65 35.36L66.65 39.17L59.86 39.17L59.86 46ZM124.29 46L116.08 46L116.08 28.54L123.65 28.54C127.63 28.54 129.74 30.25 129.74 32.91C129.74 34.83 128.39 36.32 126.37 36.72L126.37 36.9C128.61 36.98 130.42 38.59 130.42 41.05C130.42 43.93 128.08 46 124.29 46ZM179.38 43.84C178.84 45.17 177.58 46.16 175.73 46.16C172.94 46.16 170.59 43.99 170.59 39.45C170.59 34.71 173.11 32.74 175.7 32.74C177.64 32.74 178.87 33.86 179.38 35.19L179.45 35.19L179.45 28.54L184.15 28.54L184.15 46L179.48 46L179.48 43.84L179.38 43.84ZM206.59 37.27C206.59 42.72 203.21 46 197.89 46L191.18 46L191.18 28.54L197.83 28.54C203.21 28.54 206.59 31.82 206.59 37.27ZM223.43 28.54L228.13 28.54L228.13 46L223.43 46L223.43 28.54ZM120.82 32.25L120.82 35.59L122.75 35.59C124 35.59 124.87 35 124.87 33.92C124.87 32.85 124 32.25 122.83 32.25L120.82 32.25ZM195.92 32.57L195.92 41.97L197.72 41.97C200.31 41.97 201.81 40.91 201.81 37.27C201.81 33.62 200.31 32.57 197.59 32.57L195.92 32.57ZM73.63 46L68.93 46L68.93 32.91L73.49 32.91L73.49 35.4L73.63 35.4C74.11 33.55 75.2 32.74 76.6 32.74C77.01 32.74 77.41 32.8 77.79 32.91L77.79 36.92C77.32 36.77 76.54 36.69 76.05 36.69C74.67 36.69 73.63 37.67 73.63 39.17L73.63 46ZM91.67 39.49C91.67 43.5 89.14 46.24 84.88 46.24C80.62 46.24 78.1 43.5 78.1 39.49C78.1 35.46 80.62 32.74 84.88 32.74C89.14 32.74 91.67 35.46 91.67 39.49ZM98.28 46L93.58 46L93.58 32.91L98.04 32.91L98.04 35.4L98.18 35.4C98.72 33.75 100.11 32.74 101.93 32.74C103.77 32.74 105.23 33.79 105.51 35.4L105.64 35.4C106.09 33.79 107.66 32.74 109.6 32.74C112.1 32.74 113.83 34.48 113.83 37.16L113.83 46L109.12 46L109.12 38.36C109.12 37.22 108.49 36.52 107.52 36.52C106.54 36.52 105.95 37.22 105.95 38.36L105.95 46L101.45 46L101.45 38.36C101.45 37.22 100.82 36.52 99.85 36.52C98.87 36.52 98.28 37.22 98.28 38.36L98.28 46ZM145.26 39.49C145.26 43.5 142.73 46.24 138.47 46.24C134.21 46.24 131.69 43.5 131.69 39.49C131.69 35.46 134.21 32.74 138.47 32.74C142.73 32.74 145.26 35.46 145.26 39.49ZM154.6 44.16C153.81 45.62 152.52 46.2 150.81 46.2C148.31 46.2 146.55 44.99 146.55 42.38C146.55 39.51 148.66 38.42 151.36 38.22C153.56 38.06 154.39 37.82 154.39 37.07L154.39 37.03C154.39 36.34 153.81 35.97 153 35.97C152.1 35.97 151.5 36.36 151.39 37.16L147.06 37.16C147.23 34.78 149.15 32.74 153.06 32.74C156.81 32.74 159.1 34.61 159.1 37.03L159.1 46L154.7 46L154.7 44.16L154.6 44.16ZM166.05 46L161.35 46L161.35 32.91L165.91 32.91L165.91 35.4L166.05 35.4C166.53 33.55 167.62 32.74 169.02 32.74C169.43 32.74 169.83 32.8 170.21 32.91L170.21 36.92C169.74 36.77 168.96 36.69 168.47 36.69C167.09 36.69 166.05 37.67 166.05 39.17L166.05 46ZM221.52 41.77C221.07 44.5 218.74 46.24 215.11 46.24C210.92 46.24 208.36 43.72 208.36 39.49C208.36 35.42 210.95 32.74 215.01 32.74C218.96 32.74 221.52 35.28 221.52 39.45L221.52 40.54L212.99 40.54L212.99 40.75C212.99 42 213.81 42.92 215.21 42.92C216.17 42.92 216.95 42.51 217.22 41.77L221.52 41.77ZM264.4 41.77C263.96 44.5 261.63 46.24 257.99 46.24C253.8 46.24 251.24 43.72 251.24 39.49C251.24 35.42 253.83 32.74 257.89 32.74C261.85 32.74 264.4 35.28 264.4 39.45L264.4 40.54L255.88 40.54L255.88 40.75C255.88 42 256.7 42.92 258.1 42.92C259.06 42.92 259.83 42.51 260.11 41.77L264.4 41.77ZM271.02 46L266.32 46L266.32 32.91L270.88 32.91L270.88 35.4L271.02 35.4C271.5 33.55 272.59 32.74 273.99 32.74C274.4 32.74 274.8 32.8 275.18 32.91L275.18 36.92C274.71 36.77 273.93 36.69 273.44 36.69C272.05 36.69 271.02 37.67 271.02 39.17L271.02 46ZM235.23 46L230.52 46L230.52 32.91L235.23 32.91L235.23 46ZM245.86 32.91L250.8 32.91L246.41 46L240.95 46L236.55 32.91L241.5 32.91L243.61 41.57L243.75 41.57L245.86 32.91ZM285.54 47.08C284.82 49.25 283.27 50.91 279.98 50.91C278.9 50.91 277.89 50.74 277.15 50.44L278.18 47.1C279.34 47.51 280.25 47.54 280.56 46.82L280.67 46.58L276.06 32.91L280.97 32.91L283.09 41.97L283.22 41.97L285.37 32.91L290.31 32.91L285.54 47.08ZM215.11 36.04C213.96 36.04 213.02 36.81 212.99 37.95L217.19 37.95C217.16 36.83 216.27 36.04 215.11 36.04ZM257.99 36.04C256.85 36.04 255.91 36.81 255.88 37.95L260.07 37.95C260.05 36.83 259.16 36.04 257.99 36.04ZM82.91 39.45C82.91 41.5 83.66 42.75 84.92 42.75C86.11 42.75 86.86 41.5 86.86 39.45C86.86 37.39 86.11 36.15 84.92 36.15C83.66 36.15 82.91 37.39 82.91 39.45ZM136.5 39.45C136.5 41.5 137.25 42.75 138.51 42.75C139.7 42.75 140.45 41.5 140.45 39.45C140.45 37.39 139.7 36.15 138.51 36.15C137.25 36.15 136.5 37.39 136.5 39.45ZM175.43 39.45C175.43 41.4 176.18 42.55 177.47 42.55C178.77 42.55 179.55 41.36 179.55 39.45C179.55 37.5 178.77 36.34 177.47 36.34C176.18 36.34 175.43 37.5 175.43 39.45ZM120.82 38.53L120.82 42.21L123.03 42.21C124.62 42.21 125.41 41.61 125.41 40.44C125.41 39.21 124.54 38.53 123.1 38.53L120.82 38.53ZM150.98 42.11C150.98 42.84 151.55 43.24 152.35 43.24C153.41 43.24 154.43 42.55 154.43 41.36L154.43 40.27C153.94 40.47 153.3 40.63 152.55 40.75C151.46 40.91 150.98 41.44 150.98 42.11Z" fill="#F9FAFB" fill-opacity="1.000000" fill-rule="evenodd"/>
</svg>
