<svg width="62.500000" height="43.750000" viewBox="0 0 62.5 43.75" fill="none" xmlns="http://www.w3.org/2000/svg" xmlns:xlink="http://www.w3.org/1999/xlink">
	<desc>
			Created with Pixso.
	</desc>
	<defs/>
	<path id="“" d="M27.28 16.96C27.28 21.6 26.58 25.59 25.17 28.92C23.76 32.38 21.94 35.17 19.71 37.32C17.48 39.58 14.96 41.19 12.14 42.14C9.21 43.21 6.33 43.75 3.52 43.75L3.52 37.5C6.57 37.5 9.44 36.42 12.14 34.28C14.73 32.26 16.25 29.46 16.72 25.89C16.37 26.01 15.96 26.13 15.49 26.25C15.14 26.36 14.73 26.48 14.26 26.6C13.67 26.72 13.02 26.78 12.32 26.78C8.8 26.78 5.86 25.41 3.52 22.67C1.17 20.05 0 16.96 0 13.39C0 9.82 1.23 6.66 3.69 3.92C6.04 1.3 9.21 0 13.2 0C17.66 0 21.12 1.66 23.59 5C26.05 8.45 27.28 12.44 27.28 16.96ZM62.5 16.96C62.5 21.6 61.79 25.59 60.38 28.92C58.97 32.38 57.15 35.17 54.92 37.32C52.69 39.58 50.17 41.19 47.35 42.14C44.42 43.21 41.54 43.75 38.73 43.75L38.73 37.5C41.78 37.5 44.65 36.42 47.35 34.28C49.94 32.26 51.46 29.46 51.93 25.89C51.58 26.01 51.17 26.13 50.7 26.25C50.35 26.36 49.94 26.48 49.47 26.6C48.88 26.72 48.23 26.78 47.53 26.78C44.01 26.78 41.07 25.41 38.73 22.67C36.38 20.05 35.21 16.96 35.21 13.39C35.21 9.82 36.44 6.66 38.9 3.92C41.25 1.3 44.42 0 48.41 0C52.87 0 56.33 1.66 58.8 5C61.26 8.45 62.5 12.44 62.5 16.96Z" fill="#EDE9FE" fill-opacity="1.000000" fill-rule="evenodd"/>
</svg>
