<svg width="13.333313" height="13.333252" viewBox="0 0 13.3333 13.3333" fill="none" xmlns="http://www.w3.org/2000/svg" xmlns:xlink="http://www.w3.org/1999/xlink">
	<desc>
			Created with Pixso.
	</desc>
	<defs/>
	<path id="Vector" d="M8.23 8.15C7.79 8.51 7.23 8.7 6.66 8.7C6.09 8.7 5.53 8.51 5.09 8.15C4.95 8.04 4.78 7.98 4.6 8C4.42 8.01 4.26 8.1 4.15 8.23C4.04 8.37 3.98 8.55 4 8.72C4.01 8.9 4.1 9.06 4.23 9.17C4.92 9.74 5.77 10.05 6.66 10.05C7.55 10.05 8.41 9.74 9.09 9.17C9.22 9.06 9.31 8.9 9.33 8.72C9.34 8.55 9.29 8.37 9.17 8.23C9.12 8.17 9.05 8.11 8.97 8.07C8.9 8.03 8.81 8.01 8.72 8C8.55 7.98 8.37 8.04 8.23 8.15ZM4.8 5.69C4.93 5.81 5.1 5.88 5.27 5.88C5.45 5.88 5.62 5.81 5.74 5.69C5.87 5.56 5.94 5.39 5.94 5.22C5.94 5.04 5.87 4.87 5.74 4.75C5.36 4.39 4.85 4.18 4.33 4.18C3.8 4.18 3.3 4.39 2.91 4.75C2.85 4.81 2.79 4.88 2.75 4.96C2.71 5.05 2.69 5.14 2.68 5.23C2.68 5.32 2.69 5.41 2.73 5.5C2.76 5.58 2.81 5.66 2.88 5.73C2.94 5.79 3.02 5.84 3.11 5.88C3.19 5.91 3.28 5.92 3.37 5.92C3.47 5.92 3.56 5.89 3.64 5.85C3.72 5.81 3.8 5.76 3.85 5.69C3.92 5.63 3.99 5.58 4.07 5.54C4.15 5.51 4.24 5.49 4.33 5.49C4.42 5.49 4.5 5.51 4.58 5.54C4.67 5.58 4.74 5.63 4.8 5.69ZM10.41 4.75C10.03 4.39 9.52 4.18 9 4.18C8.47 4.18 7.96 4.39 7.58 4.75C7.47 4.88 7.42 5.04 7.42 5.21C7.43 5.38 7.5 5.53 7.62 5.65C7.74 5.77 7.89 5.84 8.06 5.85C8.23 5.85 8.39 5.8 8.52 5.69C8.58 5.63 8.66 5.58 8.74 5.54C8.82 5.51 8.91 5.49 9 5.49C9.08 5.49 9.17 5.51 9.25 5.54C9.33 5.58 9.41 5.63 9.47 5.69C9.59 5.81 9.76 5.88 9.94 5.88C10.11 5.88 10.28 5.81 10.41 5.69C10.53 5.56 10.6 5.39 10.6 5.22C10.6 5.04 10.53 4.87 10.41 4.75ZM6.66 0C5.34 0 4.05 0.39 2.96 1.12C1.86 1.85 1.01 2.89 0.5 4.11C0 5.33 -0.13 6.67 0.12 7.96C0.38 9.26 1.02 10.44 1.95 11.38C2.88 12.31 4.07 12.94 5.36 13.2C6.65 13.46 7.99 13.33 9.21 12.82C10.43 12.32 11.47 11.46 12.2 10.37C12.94 9.27 13.33 7.98 13.33 6.66C13.33 5.79 13.16 4.92 12.82 4.11C12.49 3.3 11.99 2.57 11.38 1.95C10.76 1.33 10.02 0.84 9.21 0.5C8.4 0.17 7.54 0 6.66 0ZM6.66 12C5.61 12 4.58 11.68 3.7 11.1C2.82 10.51 2.14 9.68 1.73 8.7C1.33 7.73 1.23 6.66 1.43 5.62C1.64 4.59 2.14 3.64 2.89 2.89C3.64 2.14 4.59 1.64 5.62 1.43C6.66 1.22 7.73 1.33 8.7 1.73C9.68 2.14 10.51 2.82 11.1 3.7C11.68 4.58 12 5.61 12 6.66C12 8.08 11.43 9.43 10.43 10.43C9.43 11.43 8.08 12 6.66 12Z" fill="#F9FAFB" fill-opacity="1.000000" fill-rule="nonzero"/>
</svg>
